<svg xmlns="http://www.w3.org/2000/svg" width="27" height="15.75" viewBox="0 0 27 15.75">
  <g id="Icon_ionic-ios-menu" data-name="Icon ionic-ios-menu" transform="translate(-4.5 -10.125)">
    <path id="패스_1" data-name="패스 1" d="M30.375,12.375H5.625A1.128,1.128,0,0,1,4.5,11.25h0a1.128,1.128,0,0,1,1.125-1.125h24.75A1.128,1.128,0,0,1,31.5,11.25h0A1.128,1.128,0,0,1,30.375,12.375Z"/>
    <path id="패스_2" data-name="패스 2" d="M30.375,19.125H5.625A1.128,1.128,0,0,1,4.5,18h0a1.128,1.128,0,0,1,1.125-1.125h24.75A1.128,1.128,0,0,1,31.5,18h0A1.128,1.128,0,0,1,30.375,19.125Z"/>
    <path id="패스_3" data-name="패스 3" d="M30.375,25.875H5.625A1.128,1.128,0,0,1,4.5,24.75h0a1.128,1.128,0,0,1,1.125-1.125h24.75A1.128,1.128,0,0,1,31.5,24.75h0A1.128,1.128,0,0,1,30.375,25.875Z"/>
  </g>
</svg>
