<svg xmlns="http://www.w3.org/2000/svg" width="49.422" height="31.749" viewBox="0 0 49.422 31.749">
  <path id="Icon_awesome-coffee" data-name="Icon awesome-coffee" d="M13.4,26.894h13.4a6.712,6.712,0,0,0,6.7-6.721h2.233a8.962,8.962,0,0,0,0-17.923H8.373A1.673,1.673,0,0,0,6.7,3.93V20.173A6.712,6.712,0,0,0,13.4,26.894ZM35.725,6.731a4.481,4.481,0,0,1,0,8.962H33.492V6.731Zm3.328,26.885H3.37c-3.321,0-4.256-4.481-2.512-4.481h40.7c1.744,0,.823,4.481-2.5,4.481Z" transform="matrix(0.985, 0, 0.065, 0.927, 4.991, -1.863)"/>
</svg>
