<svg xmlns="http://www.w3.org/2000/svg" width="41.5" height="36" viewBox="0 0 41.5 36">
  <path id="Icon_awesome-building" data-name="Icon awesome-building" d="M40.388,33.75H38.536V1.688A2.012,2.012,0,0,0,36.313,0H5.188A2.012,2.012,0,0,0,2.964,1.688V33.75H1.112A1.006,1.006,0,0,0,0,34.594V36H41.5V34.594A1.006,1.006,0,0,0,40.388,33.75ZM11.857,5.344A1.006,1.006,0,0,1,12.969,4.5h3.705a1.006,1.006,0,0,1,1.112.844V8.156A1.006,1.006,0,0,1,16.674,9H12.969a1.006,1.006,0,0,1-1.112-.844Zm0,6.75a1.006,1.006,0,0,1,1.112-.844h3.705a1.006,1.006,0,0,1,1.112.844v2.813a1.006,1.006,0,0,1-1.112.844H12.969a1.006,1.006,0,0,1-1.112-.844ZM16.674,22.5H12.969a1.006,1.006,0,0,1-1.112-.844V18.844A1.006,1.006,0,0,1,12.969,18h3.705a1.006,1.006,0,0,1,1.112.844v2.813A1.006,1.006,0,0,1,16.674,22.5Zm7.04,11.25H17.786V27.844A1.006,1.006,0,0,1,18.9,27H22.6a1.006,1.006,0,0,1,1.112.844Zm5.929-12.094a1.006,1.006,0,0,1-1.112.844H24.826a1.006,1.006,0,0,1-1.112-.844V18.844A1.006,1.006,0,0,1,24.826,18h3.705a1.006,1.006,0,0,1,1.112.844Zm0-6.75a1.006,1.006,0,0,1-1.112.844H24.826a1.006,1.006,0,0,1-1.112-.844V12.094a1.006,1.006,0,0,1,1.112-.844h3.705a1.006,1.006,0,0,1,1.112.844Zm0-6.75A1.006,1.006,0,0,1,28.531,9H24.826a1.006,1.006,0,0,1-1.112-.844V5.344A1.006,1.006,0,0,1,24.826,4.5h3.705a1.006,1.006,0,0,1,1.112.844Z"/>
</svg>
